<svg width="480" height="200" viewBox="0 0 480 200" fill="none" xmlns="http://www.w3.org/2000/svg">
<path d="M238.425 49.125H223.5V148.55H238.425V49.125Z" fill="#FF2F00"/>
<path d="M255.375 51.825C249.625 51.825 245.6 55.8 245.6 61.475C245.6 67.225 249.625 71.25 255.375 71.25C261.1 71.25 265.275 67.15 265.275 61.475C265.275 55.875 261.125 51.825 255.375 51.825Z" fill="#FF2F00"/>
<path d="M262.925 78.625H248V148.575H262.925V78.625Z" fill="#FF2F00"/>
<path d="M379.225 76.05C369.825 76.05 362.125 78.925 356.25 84.625L355.7 78.625H341.9V148.575H356.825V109.425C356.825 97.825 364.925 89.7 376.55 89.7C385.325 89.7 390.75 95.625 390.75 105.2V148.575H405.8V104.175C405.8 86.825 395.6 76.05 379.225 76.05Z" fill="#FF2F00"/>
<path d="M428.9 78.625H413.975V148.575H428.9V78.625Z" fill="#FF2F00"/>
<path d="M421.55 71.225C427.275 71.225 431.45 67.125 431.45 61.45C431.45 55.85 427.275 51.8 421.55 51.8C415.8 51.8 411.775 55.775 411.775 61.45C411.8 67.225 415.8 71.225 421.55 71.225Z" fill="#FF2F00"/>
<path d="M204.625 127.4C200.975 133.25 193.4 137.1 185.3 137.1C173.725 137.1 164.9 130.125 162.575 119.45H216.375L216.6 117.125C216.75 115.725 216.75 114.225 216.75 112.975C216.475 91.225 202.375 76.05 182.475 76.05C161.8 76.05 146.8 91.55 146.8 112.875C146.8 135.025 162.925 151.125 185.175 151.125C198.85 151.125 211.05 144.85 216.8 135.2L204.625 127.4ZM182.35 90.225C192.275 90.225 198.875 95.825 200.775 105.7H162.8C165.3 96.175 172.7 90.225 182.35 90.225Z" fill="#FF2F00"/>
<path d="M303.05 76.05C287.7 76.05 274.475 84.1 270.85 95L284.125 101.025C286.65 94.675 294.825 90.075 302.675 90.075C312.625 90.075 319.05 94.3 319.05 100.825C319.05 102.2 318.05 103.025 316.075 103.25L300.05 105.175C274 108.35 268.525 119.9 268.525 129.025C268.525 142.025 279.875 151.1 296.125 151.1C305.625 151.1 313.8 147.825 319.425 141.975L320.05 148.55H333.85V102.375C333.85 86.625 321.475 76.05 303.05 76.05ZM318.8 118.275C318.8 129.35 310.175 137.1 297.8 137.1C289.35 137.1 283.475 133.725 283.475 128.925C283.475 126.95 283.475 120.925 301.725 118.675L318.825 116.6V118.275H318.8Z" fill="#FF2F00"/>
<path d="M135.75 148.525C139.25 139.125 141.2 129.6 141.2 120.05C141.2 101.25 127.075 89.275 113.675 88.3C108.45 87.925 104.675 88.375 99.375 90.2C101.7 84.6 102.275 79.15 102.025 73.7C101.225 56.225 84.15 46.6 70.875 46.6C63.65 46.6 57.575 46.975 42.05 53.95V148.5H57.45L135.75 148.525ZM57.475 63.675C62.15 61.95 66.875 61.1 71.325 61.1C80.2 61.1 88.2 67.75 88.2 77.9C88.2 86.45 85.35 92.95 72.95 105.325L83.85 116.225C92.65 107.675 99.675 102.225 109.6 102.225C120.5 102.225 126.825 110.85 126.825 121.125C126.825 125.8 126.05 129.825 124.65 133.825H124.6H57.475V63.675Z" fill="#FF2F00"/>
</svg>
